<svg version="1.0" xmlns="http://www.w3.org/2000/svg"
 width="1280.000000pt" height="1190.000000pt" viewBox="0 0 1280.000000 1190.000000"
 preserveAspectRatio="xMidYMid meet">
<g transform="translate(0.000000,1190.000000) scale(0.100000,-0.100000)"
fill="#000" stroke="none">
<path d="M4306 11858 c-3 -24 -8 -86 -11 -138 -11 -183 -138 -2256 -205 -3335
-10 -170 -28 -470 -40 -665 -11 -195 -23 -374 -26 -397 l-5 -43 -1999 0 -1999
0 -5 -52 c-3 -29 -8 -99 -11 -156 -5 -94 -4 -110 21 -187 26 -78 34 -91 126
-191 87 -97 102 -119 134 -199 34 -86 40 -93 125 -169 82 -72 94 -89 169 -222
l81 -143 82 -47 c78 -45 86 -52 168 -168 l86 -121 36 -189 36 -189 55 -81 c29
-45 89 -119 131 -166 88 -98 78 -77 150 -286 l56 -161 87 -85 87 -86 320 -150
320 -150 195 -42 c107 -23 266 -59 352 -81 86 -21 178 -39 203 -39 41 0 68
-13 251 -124 185 -112 208 -123 233 -115 54 19 184 167 274 311 47 75 88 147
92 160 4 12 39 102 77 198 88 223 95 230 220 230 57 0 130 -9 204 -25 105 -23
138 -25 348 -25 l232 0 119 -43 c118 -43 121 -44 158 -98 38 -54 38 -54 138
-82 64 -17 124 -42 167 -69 91 -56 259 -223 339 -337 l66 -94 27 -141 c25
-133 32 -151 113 -317 100 -205 267 -482 363 -602 l68 -84 56 -204 c50 -180
65 -219 125 -329 59 -110 80 -139 174 -235 127 -129 204 -226 225 -281 8 -21
41 -113 72 -204 31 -91 79 -221 105 -290 48 -124 50 -126 136 -211 135 -133
288 -242 383 -274 71 -24 83 -32 138 -93 32 -37 97 -93 144 -125 92 -63 172
-90 303 -103 73 -7 197 -47 455 -149 128 -51 444 -165 456 -165 2 0 4 18 4 40
0 47 -43 126 -103 187 l-41 43 22 29 22 30 -109 298 -108 298 -54 342 -53 343
-33 6 c-30 6 -33 9 -33 44 l0 37 92 8 c85 6 96 10 150 46 l59 40 -6 52 c-14
124 -18 144 -42 192 -14 27 -26 51 -27 52 -1 1 -33 7 -71 13 -67 11 -107 31
-91 47 4 4 95 9 202 11 135 3 194 8 194 16 1 6 9 55 19 108 l18 98 -86 0 c-86
0 -86 0 -104 31 -10 18 -16 33 -15 34 2 1 39 7 83 14 148 22 135 14 135 86 0
38 5 67 12 71 8 5 10 -20 5 -99 l-7 -107 65 0 65 0 84 113 c83 109 85 112 65
127 -11 9 -22 32 -25 55 -3 22 -7 52 -9 67 -4 23 1 31 25 43 35 18 40 19 40 2
0 -14 51 -67 64 -67 21 0 72 50 150 144 l85 103 2 74 2 73 -44 -2 c-40 -3 -53
3 -131 58 -106 74 -113 94 -44 128 l45 21 44 -51 45 -52 117 18 c65 9 121 13
124 9 3 -5 27 -25 52 -46 57 -46 94 -48 269 -12 68 14 128 25 135 25 7 0 20
-19 28 -43 l14 -43 -105 -123 c-59 -69 -101 -126 -96 -131 10 -10 288 150 504
290 81 52 185 130 236 177 l90 83 33 142 c18 79 39 152 46 164 8 12 54 69 103
127 77 92 90 112 96 153 6 45 4 50 -30 85 -20 20 -64 49 -99 64 -62 26 -63 27
-95 101 l-33 75 43 37 c69 59 73 61 177 78 86 14 104 15 129 3 28 -14 29 -17
32 -97 l3 -82 57 0 c31 0 82 7 112 15 30 8 56 15 58 15 1 0 2 -15 2 -33 0 -31
-7 -38 -80 -88 -85 -58 -83 -54 -54 -126 11 -26 20 -33 42 -32 21 0 40 16 87
71 l60 70 247 124 248 124 128 0 128 0 38 77 37 78 -20 59 c-13 35 -21 84 -21
121 0 61 31 240 50 290 8 21 3 37 -25 88 -32 59 -35 70 -35 151 0 74 4 94 26
139 52 101 94 245 94 320 0 66 -2 71 -40 117 -22 26 -44 60 -50 75 -10 26 -8
32 23 63 l34 34 -19 67 c-24 79 -70 143 -152 210 -34 27 -82 71 -107 98 l-46
48 -22 540 c-12 297 -31 791 -43 1098 l-22 558 -66 -7 c-45 -4 -83 -1 -126 10
-34 9 -82 16 -107 16 -33 0 -96 20 -234 76 -213 86 -394 148 -567 194 -103 27
-128 31 -190 25 -52 -5 -96 -2 -154 10 l-82 16 -111 -28 -110 -28 -91 -80
c-116 -103 -165 -135 -206 -135 -18 0 -64 -7 -103 -16 l-69 -16 -41 32 c-26
22 -53 59 -79 109 -33 66 -45 80 -88 104 -60 33 -95 34 -183 5 -64 -20 -68
-24 -90 -70 -12 -26 -24 -48 -26 -48 -2 0 -34 15 -71 34 l-68 34 -77 -99 c-72
-91 -81 -99 -112 -99 -32 0 -38 6 -86 78 -29 42 -53 78 -54 80 -1 1 -29 -2
-61 -7 -58 -9 -60 -9 -84 19 -14 15 -40 35 -57 44 -31 15 -38 15 -105 -2 -57
-14 -86 -16 -133 -9 l-60 8 -60 79 c-68 89 -74 91 -177 65 -35 -10 -90 -15
-136 -13 -75 3 -77 4 -92 34 -8 17 -31 43 -52 58 -33 23 -45 26 -125 26 -58 0
-109 7 -151 19 -62 19 -64 19 -120 0 -85 -29 -100 -24 -136 46 -17 33 -39 79
-49 101 -9 23 -51 80 -93 128 -69 78 -79 86 -112 86 -28 0 -44 -8 -73 -36
l-37 -36 -24 34 c-80 110 -75 105 -125 112 -26 4 -65 14 -85 23 l-38 16 0
1092 0 1091 -952 12 c-524 7 -1047 17 -1163 22 -115 5 -287 11 -382 15 l-172
6 -5 -43z m609 -3 c242 -8 728 -17 1080 -20 352 -3 713 -8 803 -11 l162 -6 0
-1084 0 -1084 39 -19 c21 -11 61 -23 89 -27 47 -6 54 -10 81 -53 17 -25 42
-59 56 -75 l25 -30 38 37 c29 28 46 37 73 37 32 0 42 -8 102 -81 42 -51 86
-118 118 -185 l51 -104 37 0 c21 0 59 7 85 16 45 15 53 15 107 0 34 -9 96 -16
150 -16 82 0 93 -2 125 -26 19 -15 34 -31 34 -36 0 -6 9 -23 21 -39 19 -27 24
-29 92 -29 40 0 106 9 147 20 41 11 80 20 86 20 6 0 39 -36 72 -80 52 -66 68
-80 98 -86 59 -11 115 -9 180 5 74 17 114 5 142 -41 17 -29 18 -29 82 -23 l65
6 53 -81 c50 -77 53 -80 91 -80 42 0 73 27 159 141 l43 57 62 -34 c34 -18 67
-34 72 -34 6 0 23 24 37 54 24 47 32 56 74 70 124 42 202 10 260 -107 26 -52
49 -82 83 -108 l46 -36 80 18 c44 10 94 19 111 19 41 0 110 46 210 138 l83 77
105 26 105 27 88 -19 c71 -14 100 -16 151 -8 60 9 72 7 240 -41 176 -50 383
-124 581 -207 70 -29 119 -43 148 -43 25 0 80 -9 123 -20 59 -15 89 -18 123
-11 l45 8 6 -81 c3 -45 10 -200 16 -346 9 -247 37 -927 60 -1505 l10 -250 143
-140 c138 -135 143 -142 158 -201 l16 -62 -35 -36 -36 -35 18 -38 c10 -21 35
-61 57 -89 33 -43 39 -58 39 -100 0 -55 -59 -244 -104 -331 -22 -44 -26 -66
-26 -134 0 -74 3 -86 35 -144 l36 -64 -21 -83 c-31 -120 -38 -290 -15 -358
l18 -53 -34 -68 -33 -69 -123 0 -123 0 -252 -127 c-251 -125 -253 -127 -311
-195 -32 -37 -63 -68 -68 -68 -8 0 -39 58 -39 73 0 3 34 26 75 53 l75 49 0 58
c0 31 -1 57 -2 57 -2 0 -37 -9 -78 -20 -41 -11 -92 -20 -112 -20 l-38 0 0 80
0 80 -39 19 c-38 20 -39 20 -151 0 l-113 -20 -64 -56 c-35 -31 -62 -61 -60
-67 3 -6 19 -45 37 -87 32 -75 34 -77 89 -99 31 -13 73 -39 94 -58 62 -60 54
-87 -75 -240 l-94 -111 -33 -143 c-18 -79 -36 -149 -40 -155 -18 -35 -182
-166 -310 -250 -171 -112 -435 -267 -425 -250 4 7 35 44 68 82 33 39 66 78 74
87 12 14 12 24 -3 70 -10 29 -21 56 -24 61 -4 4 -63 -4 -130 -18 -68 -14 -154
-25 -190 -25 -58 1 -70 4 -100 30 l-33 28 23 41 c30 54 17 63 -29 19 -33 -32
-46 -37 -122 -48 -47 -6 -96 -14 -110 -16 -21 -4 -32 4 -69 50 l-43 55 -64
-32 c-58 -28 -64 -34 -64 -62 0 -28 10 -38 96 -98 78 -55 102 -67 135 -67 l39
0 0 -55 c0 -55 0 -56 -91 -165 -51 -60 -101 -112 -111 -116 -25 -8 -58 22 -58
53 0 26 -6 26 -77 -4 l-34 -14 7 -82 c3 -46 13 -89 20 -98 12 -13 4 -28 -58
-112 -72 -96 -73 -97 -115 -97 l-43 0 0 120 c0 66 -3 120 -7 120 -4 0 -17 -10
-30 -22 -19 -18 -23 -32 -23 -84 l0 -62 -67 -11 c-38 -6 -90 -14 -117 -18 -26
-5 -47 -12 -46 -18 1 -5 15 -31 31 -58 l29 -47 76 0 c67 0 75 -2 70 -17 -3
-10 -10 -48 -16 -84 l-12 -67 -191 -4 c-106 -3 -200 -8 -209 -13 -17 -7 -17
-9 0 -37 20 -35 37 -43 115 -52 56 -7 58 -8 82 -56 17 -34 26 -72 31 -136 l6
-89 -53 -32 c-47 -27 -67 -32 -152 -38 l-98 -7 3 -56 c3 -56 3 -56 41 -65 27
-7 37 -14 37 -28 0 -11 23 -162 51 -335 l50 -314 105 -292 c92 -257 104 -295
93 -315 -7 -13 -21 -23 -31 -23 -27 0 -23 -8 31 -56 75 -68 154 -219 104 -199
-10 4 -79 28 -153 55 -74 26 -207 76 -295 110 -280 108 -339 127 -414 135
-133 13 -216 39 -293 92 -76 51 -122 92 -178 159 -28 33 -50 46 -115 68 -100
34 -248 143 -382 278 l-91 93 -55 145 c-30 80 -81 222 -113 315 -53 156 -63
177 -120 250 -35 44 -106 123 -159 175 -88 87 -102 107 -170 235 -65 125 -79
161 -126 334 l-53 195 -72 90 c-97 122 -241 361 -353 584 -90 179 -93 187
-118 325 l-26 142 -67 95 c-88 123 -273 304 -365 357 -41 24 -106 50 -158 64
-88 22 -89 23 -127 78 l-38 56 -123 43 -124 42 -226 0 c-213 0 -234 2 -367 30
-82 17 -172 30 -213 30 -63 0 -75 -3 -112 -30 -40 -28 -47 -41 -126 -242 -65
-166 -102 -242 -164 -343 -83 -135 -208 -278 -253 -289 -18 -5 -72 23 -230
119 -204 124 -207 125 -268 125 -35 0 -109 13 -176 31 -63 16 -214 51 -335 78
l-220 48 -321 152 -320 152 -77 77 -76 77 -60 172 c-33 95 -63 179 -67 185 -4
7 -42 51 -84 98 -42 47 -100 119 -128 161 -50 75 -51 78 -86 263 l-36 188 -91
129 c-88 125 -92 130 -170 171 l-80 43 -77 139 c-70 127 -85 146 -169 223 -87
81 -94 90 -128 176 -32 81 -47 102 -134 196 -85 93 -100 115 -120 176 -25 73
-27 119 -15 288 l7 87 2003 0 2004 0 0 50 c0 27 9 192 20 367 11 175 36 575
55 888 19 314 44 714 55 890 33 532 69 1113 100 1630 17 270 35 554 40 632 6
78 10 145 10 150 0 5 33 7 73 6 39 -2 270 -10 512 -18z"/>
<path d="M10155 2795 c-103 -52 -184 -114 -266 -206 -74 -83 -119 -155 -119
-188 0 -22 1 -22 43 8 23 17 83 81 132 140 101 122 147 163 221 196 50 23 94
71 77 84 -4 4 -44 -11 -88 -34z m-142 -127 c-11 -13 -59 -69 -107 -126 -92
-107 -129 -132 -58 -39 43 58 167 187 178 187 4 0 -2 -10 -13 -22z"/>
<path d="M9594 2218 c-37 -57 -88 -130 -114 -163 -38 -48 -90 -142 -90 -161 0
-2 9 -4 21 -4 37 0 76 38 135 133 32 50 84 127 116 169 68 90 76 128 28 128
-27 0 -37 -10 -96 -102z m106 73 c0 -4 -22 -37 -50 -74 -27 -36 -78 -111 -114
-167 -55 -86 -106 -147 -106 -126 0 18 31 69 70 117 25 31 75 102 110 157 34
56 69 102 77 102 7 0 13 -4 13 -9z"/>
<path d="M9358 1810 c-25 -15 -101 -162 -142 -275 -30 -85 -37 -119 -44 -225
-4 -68 -4 -199 1 -290 11 -211 53 -386 126 -525 27 -49 63 -127 81 -173 18
-46 38 -81 44 -79 6 2 12 25 14 51 3 38 -7 73 -49 179 -81 207 -89 233 -120
392 -34 178 -37 286 -10 465 15 101 28 150 70 254 29 71 62 146 74 166 18 32
19 40 8 54 -15 18 -29 20 -53 6z m24 -48 c-10 -15 -44 -90 -74 -167 -44 -112
-59 -163 -72 -255 -43 -301 -2 -555 144 -910 17 -40 30 -82 29 -94 0 -12 -10
2 -22 34 -12 31 -42 91 -66 135 -97 175 -141 449 -126 774 6 133 10 153 45
250 36 101 111 248 133 263 22 14 27 -4 9 -30z"/>
</g>
</svg>
